<svg width="64" height="64" viewBox="0 0 64 64" fill="none" xmlns="http://www.w3.org/2000/svg">
  <rect width="64" height="64" rx="20" fill="#090B14"/>
  <rect x="22" y="24" width="20" height="24" rx="10" fill="url(#paint0_linear)"/>
  <path d="M32.5 14C29.8 18.2 27 21.1 27 25.4C27 28.4 29.2 31 32.1 31C35.7 31 38 28.2 38 24.8C38 21.1 35.7 17.6 32.5 14Z" fill="#FFF0D1"/>
  <path d="M32.1 17.3C30.5 20.2 29 22 29 24.6C29 26.5 30.4 28 32.2 28C34.3 28 35.8 26.2 35.8 24C35.8 21.7 34.4 19.4 32.1 17.3Z" fill="#F6C56C"/>
  <path d="M25.5 29.5H38.5" stroke="#FFF0D1" stroke-width="1.5" stroke-linecap="round"/>
  <defs>
    <linearGradient id="paint0_linear" x1="32" y1="24" x2="32" y2="48" gradientUnits="userSpaceOnUse">
      <stop stop-color="#FCE4B4"/>
      <stop offset="1" stop-color="#C88B45"/>
    </linearGradient>
  </defs>
</svg>
